<svg width="24" height="24" viewBox="0 0 24 24" fill="none" xmlns="http://www.w3.org/2000/svg">
    <g clip-path="url(#clip0_86_343)">
        <path d="M23.766 9.648H22.8V9.6H12V14.4H18.78C17.79 17.196 15.132 19.2 12 19.2C8.022 19.2 4.8 15.978 4.8 12C4.8 8.022 8.022 4.8 12 4.8C13.836 4.8 15.504 5.49 16.776 6.624L20.172 3.228C18.03 1.23 15.162 0 12 0C5.37 0 0 5.37 0 12C0 18.63 5.37 24 12 24C18.63 24 24 18.624 24 12C24 11.196 23.916 10.41 23.766 9.648Z" fill="#FFC107"/>
        <path d="M1.38599 6.414L5.32799 9.306C6.39599 6.666 8.97599 4.8 12 4.8C13.836 4.8 15.504 5.49 16.776 6.624L20.172 3.228C18.03 1.23 15.162 0 12 0C7.39199 0 3.39599 2.604 1.38599 6.414Z" fill="#FF3D00"/>
        <path d="M11.9999 24C15.1019 24 17.9159 22.812 20.0459 20.886L16.3319 17.742C15.1259 18.654 13.6319 19.2 11.9999 19.2C8.87995 19.2 6.22795 17.208 5.23195 14.43L1.31995 17.448C3.30595 21.336 7.33795 24 11.9999 24Z" fill="#4CAF50"/>
        <path d="M23.766 9.64798H22.8V9.59998H12V14.4H18.78C18.306 15.744 17.442 16.902 16.326 17.742L20.04 20.886C19.776 21.126 23.994 18 23.994 12C23.994 11.196 23.91 10.41 23.76 9.64798H23.766Z" fill="#1976D2"/>
    </g>
    <defs>
        <clipPath id="clip0_86_343">
            <rect width="24" height="24" fill="white"/>
        </clipPath>
    </defs>
</svg>
