<svg width="32" height="32" viewBox="0 0 32 32" fill="none" xmlns="http://www.w3.org/2000/svg">
    <path d="M14.6667 18.6667C16 18.6667 17.4 18.88 18.9333 19.2533C17.8533 20.4133 17.3333 21.7733 17.3333 23.3333C17.3333 24.52 17.6667 25.64 18.3733 26.6667H4V24C4 22.4133 5.21333 21.1333 7.65333 20.16C10.0933 19.1733 12.44 18.6667 14.6667 18.6667ZM14.6667 16C13.2267 16 12 15.48 10.9067 14.44C9.84 13.4 9.33333 12.1467 9.33333 10.6667C9.33333 9.22666 9.84 7.99999 10.9067 6.90666C12 5.83999 13.2267 5.33333 14.6667 5.33333C16.1467 5.33333 17.4 5.83999 18.44 6.90666C19.48 7.99999 20 9.22666 20 10.6667C20 12.1467 19.48 13.4 18.44 14.44C17.4 15.48 16.1467 16 14.6667 16ZM24.6667 13.3333H29.3333V16H26.6667V23.3333C26.6667 24.2174 26.3155 25.0652 25.6904 25.6904C25.0652 26.3155 24.2174 26.6667 23.3333 26.6667C22.4493 26.6667 21.6014 26.3155 20.9763 25.6904C20.3512 25.0652 20 24.2174 20 23.3333C20 22.4493 20.3512 21.6014 20.9763 20.9763C21.6014 20.3512 22.4493 20 23.3333 20C23.8133 20 24.2533 20.0933 24.6667 20.28V13.3333Z" fill="#525252"/>
</svg>
