<svg width="22" height="24" viewBox="0 0 22 24" fill="none" xmlns="http://www.w3.org/2000/svg">
    <path d="M2.66667 23.3333C1.93334 23.3333 1.30534 23.072 0.782669 22.5493C0.260002 22.0267 -0.000886625 21.3991 2.26372e-06 20.6667V8.66667C2.26372e-06 8.24444 0.0946687 7.84445 0.284002 7.46667C0.473335 7.08889 0.734225 6.77778 1.06667 6.53333L9.06667 0.533333C9.31111 0.355556 9.56667 0.222222 9.83334 0.133333C10.1 0.0444443 10.3778 0 10.6667 0C10.9556 0 11.2333 0.0444443 11.5 0.133333C11.7667 0.222222 12.0222 0.355556 12.2667 0.533333L20.2667 6.53333C20.6 6.77778 20.8613 7.08889 21.0507 7.46667C21.24 7.84445 21.3342 8.24444 21.3333 8.66667V20.6667C21.3333 21.4 21.072 22.028 20.5493 22.5507C20.0267 23.0733 19.3991 23.3342 18.6667 23.3333H13.3333V14H8V23.3333H2.66667Z" fill="white"/>
</svg>
