<svg width="32" height="32" viewBox="0 0 32 32" fill="none" xmlns="http://www.w3.org/2000/svg">
    <g clip-path="url(#clip0_1_6)">
        <path d="M6.90909 28.2777C6.1091 28.2777 5.42401 27.9947 4.85382 27.4284C4.28364 26.8623 3.99903 26.1824 4 25.3889V12.3889C4 11.9315 4.10327 11.4982 4.30982 11.0889C4.51637 10.6796 4.80097 10.3426 5.16364 10.0778L13.8909 3.57778C14.1576 3.38519 14.4364 3.24074 14.7273 3.14444C15.0182 3.04815 15.3212 3 15.6364 3C15.9516 3 16.2545 3.04815 16.5455 3.14444C16.8364 3.24074 17.1151 3.38519 17.3819 3.57778L26.1091 10.0778C26.4727 10.3426 26.7578 10.6796 26.9644 11.0889C27.1709 11.4982 27.2737 11.9315 27.2727 12.3889V25.3889C27.2727 26.1833 26.9876 26.8637 26.4174 27.4299C25.8473 27.9961 25.1627 28.2787 24.3637 28.2777H18.5454V18.1667H12.7273V28.2777H6.90909Z" fill="#525252"/>
    </g>
    <defs>
        <clipPath id="clip0_1_6">
            <rect width="24" height="26" fill="white" transform="translate(4 3)"/>
        </clipPath>
    </defs>
</svg>
