<svg width="32" height="32" viewBox="0 0 32 32" fill="none" xmlns="http://www.w3.org/2000/svg">
    <path d="M6.88915 28.28C6.09464 28.28 5.41424 27.9969 4.84797 27.4306C4.28169 26.8644 3.99904 26.1844 4 25.3909V12.3897C4 11.9323 4.10257 11.4989 4.3077 11.0896C4.51283 10.6803 4.79548 10.3433 5.15566 10.0784L13.8231 3.57783C14.0879 3.38522 14.3648 3.24076 14.6537 3.14446C14.9426 3.04815 15.2436 3 15.5566 3C15.8696 3 16.1705 3.04815 16.4594 3.14446C16.7484 3.24076 17.0252 3.38522 17.2901 3.57783L25.9576 10.0784C26.3187 10.3433 26.6018 10.6803 26.807 11.0896C27.0121 11.4989 27.1141 11.9323 27.1131 12.3897V25.3909C27.1131 26.1854 26.83 26.8658 26.2637 27.4321C25.6975 27.9983 25.0176 28.281 24.2241 28.28H18.4457V18.168H12.6674V28.28H6.88915Z" fill="url(#paint0_linear_1_6)"/>
    <defs>
        <linearGradient id="paint0_linear_1_6" x1="4.53338" y1="7.96573" x2="27.0422" y2="8.55316" gradientUnits="userSpaceOnUse">
            <stop stop-color="#DB2777"/>
            <stop offset="1" stop-color="#B41EE9"/>
        </linearGradient>
    </defs>
</svg>
